<?xml version="1.0" standalone="no"?>
<!DOCTYPE svg PUBLIC "-//W3C//DTD SVG 20010904//EN"
 "http://www.w3.org/TR/2001/REC-SVG-20010904/DTD/svg10.dtd">
<svg version="1.0" xmlns="http://www.w3.org/2000/svg"
 width="400.000000pt" height="400.000000pt" viewBox="0 0 400.000000 400.000000"
 preserveAspectRatio="xMidYMid meet">
<metadata>
Created by potrace 1.14, written by Peter Selinger 2001-2017
</metadata>
<g transform="translate(0.000000,400.000000) scale(0.100000,-0.100000)"
fill="#000000" stroke="none">
<path d="M1830 3989 c-344 -38 -659 -195 -907 -453 -204 -211 -327 -442 -394
-741 -23 -99 -23 -109 -26 -1017 l-4 -918 -32 0 c-18 0 -46 -9 -64 -20 -63
-38 -63 -41 -63 -448 0 -273 3 -371 12 -380 17 -17 3279 -17 3296 0 9 9 12
107 12 380 0 407 0 410 -63 448 -18 11 -46 20 -64 20 l-32 0 -4 918 c-3 910
-3 918 -26 1017 -67 298 -191 531 -393 740 -331 343 -780 506 -1248 454z m395
-84 c514 -83 952 -450 1119 -939 52 -149 67 -240 73 -428 l6 -178 -82 0 -81 0
0 113 c0 620 -440 1146 -1047 1252 -110 19 -316 19 -426 0 -607 -106 -1047
-632 -1047 -1252 l0 -113 -81 0 -82 0 6 178 c9 293 72 500 224 737 211 328
570 564 958 629 109 19 349 19 460 1z m10 -260 c478 -101 841 -474 930 -954 8
-46 15 -138 15 -207 l0 -124 -108 0 -109 0 -6 98 c-30 457 -358 825 -802 897
-425 69 -835 -146 -1020 -537 -54 -114 -83 -230 -92 -360 l-6 -98 -109 0 -108
0 0 123 c0 67 7 160 15 207 89 506 508 906 1016 969 95 12 294 5 384 -14z
m-62 -369 c394 -76 706 -448 707 -843 l0 -72 -101 -3 c-105 -3 -109 -5 -123
-50 -5 -17 -25 -18 -240 -18 l-235 0 -16 34 c-24 50 -66 66 -169 66 -109 0
-151 -16 -171 -65 l-15 -35 -240 0 -240 0 0 23 c0 40 -18 47 -118 47 l-95 0 6
108 c8 127 25 198 78 310 118 254 356 445 618 497 90 18 263 18 354 1z m-75
-1140 c2 -116 -1 -173 -9 -182 -15 -18 -169 -20 -187 -2 -13 13 -18 339 -5
352 4 4 50 5 103 4 l95 -3 3 -169z m-1058 84 l0 -60 -230 0 -230 0 0 60 0 60
230 0 230 0 0 -60z m210 0 l0 -60 -65 0 -65 0 0 60 0 60 65 0 65 0 0 -60z
m1630 0 l0 -61 -72 3 -73 3 -3 58 -3 57 76 0 75 0 0 -60z m540 0 l0 -60 -230
0 -230 0 0 60 0 60 230 0 230 0 0 -60z m-1610 -90 l0 -90 -240 0 -240 0 0 90
0 90 240 0 240 0 0 -90z m850 0 l0 -90 -240 0 -240 0 0 90 0 90 240 0 240 0 0
-90z m-1620 -100 l0 -60 -230 0 -230 0 0 60 0 60 230 0 230 0 0 -60z m210 0
l0 -60 -65 0 -65 0 0 60 0 60 65 0 65 0 0 -60z m1630 0 l0 -60 -75 0 -75 0 0
60 0 60 75 0 75 0 0 -60z m540 0 l0 -60 -230 0 -230 0 0 60 0 60 230 0 230 0
0 -60z m-1600 -86 c0 -8 13 -29 29 -45 29 -29 31 -29 146 -29 115 0 117 0 146
29 16 16 29 37 29 45 0 14 29 16 245 16 l245 0 0 -25 c0 -36 27 -45 129 -45
l91 0 0 -905 0 -905 -880 0 -880 0 0 905 0 905 86 0 c97 0 124 10 124 45 l0
25 245 0 c216 0 245 -2 245 -16z m-1080 -569 l0 -515 -80 0 -80 0 0 515 0 515
80 0 80 0 0 -515z m300 0 l0 -515 -110 0 -110 0 0 515 0 515 110 0 110 0 0
-515z m2140 0 l0 -515 -110 0 -110 0 0 515 0 515 110 0 110 0 0 -515z m240 0
l0 -515 -80 0 -80 0 0 515 0 515 80 0 80 0 0 -515z m-2380 -945 l0 -360 -312
2 -313 3 0 338 0 339 24 19 c22 18 43 19 312 19 l289 0 0 -360z m2521 341 l24
-19 0 -339 0 -338 -312 -3 -313 -2 0 360 0 360 289 0 c269 0 290 -1 312 -19z"/>
<path d="M1895 3103 c-208 -28 -413 -181 -506 -378 -48 -102 -76 -242 -54
-272 13 -17 45 -18 643 -21 401 -1 639 1 656 8 22 8 26 15 26 52 0 65 -27 165
-65 243 -125 257 -410 407 -700 368z m249 -89 c142 -36 295 -152 363 -274 36
-63 73 -168 73 -205 l0 -25 -585 0 -585 0 0 28 c1 42 41 151 80 216 69 114
217 224 351 260 73 20 226 20 303 0z"/>
<path d="M1442 1728 c-19 -19 -16 -840 3 -933 61 -288 330 -461 647 -416 244
34 422 213 458 459 13 92 13 858 0 883 -10 18 -27 19 -553 19 -409 0 -546 -3
-555 -12z m1038 -133 l0 -75 -485 0 -485 0 0 75 0 75 485 0 485 0 0 -75z
m-602 -222 l-68 -68 -60 60 c-33 33 -60 63 -60 67 0 4 57 8 127 8 l128 0 -67
-67z m412 59 c0 -4 -27 -34 -60 -67 l-60 -59 -60 59 c-33 33 -60 63 -60 67 0
4 54 8 120 8 66 0 120 -4 120 -8z m-588 -119 l58 -57 -62 -63 -62 -63 -63 62
-63 62 57 58 c32 32 62 58 67 58 6 0 36 -26 68 -57z m361 -1 l57 -58 -65 -64
-65 -65 -62 63 -63 62 60 60 c33 33 64 60 70 60 6 0 36 -26 68 -58z m352 -2
l60 -60 -63 -63 -62 -62 -62 62 -63 63 60 60 c33 33 62 60 65 60 3 0 32 -27
65 -60z m-537 -297 l-62 -63 -63 62 -63 62 62 63 62 63 63 -62 63 -62 -62 -63z
m357 -3 l-65 -65 -62 63 -63 62 65 65 64 65 63 -62 63 -63 -65 -65z m-537
-177 l-62 -63 -63 62 -63 62 62 63 62 63 63 -62 63 -62 -62 -63z m360 0 l-62
-63 -63 62 -63 62 62 63 62 63 63 -62 63 -62 -62 -63z m412 62 c0 -6 -27 -37
-60 -70 l-60 -60 -62 63 -63 62 65 65 64 65 58 -57 c32 -32 58 -62 58 -68z
m-592 -242 l-62 -63 -63 62 -63 62 62 63 62 63 63 -62 63 -62 -62 -63z m360 0
l-62 -63 -63 62 -63 62 62 63 62 63 63 -62 63 -62 -62 -63z m-160 -160 c-36
-36 -48 -43 -82 -43 -34 0 -47 7 -83 42 l-43 42 62 63 62 63 63 -62 63 -62
-42 -43z"/>
</g>
</svg>
