<?xml version="1.0" standalone="no"?>
<!DOCTYPE svg PUBLIC "-//W3C//DTD SVG 20010904//EN"
 "http://www.w3.org/TR/2001/REC-SVG-20010904/DTD/svg10.dtd">
<svg version="1.0" xmlns="http://www.w3.org/2000/svg"
 width="512.000000pt" height="512.000000pt" viewBox="0 0 512.000000 512.000000"
 preserveAspectRatio="xMidYMid meet">
<metadata>
Created by potrace 1.14, written by Peter Selinger 2001-2017
</metadata>
<g transform="translate(0.000000,512.000000) scale(0.100000,-0.100000)"
fill="#000000" stroke="none">
<path d="M4275 5094 c-82 -22 -2195 -670 -2250 -691 -189 -71 -351 -239 -418
-433 l-22 -65 -3 -1202 c-1 -662 -4 -1203 -7 -1203 -3 0 -40 12 -82 27 -74 26
-86 28 -258 27 -168 -1 -188 -3 -298 -32 -214 -56 -410 -166 -552 -311 -131
-133 -197 -244 -236 -401 -56 -220 18 -450 189 -586 135 -107 302 -163 512
-171 458 -17 876 215 1045 580 72 157 68 84 74 1272 l6 1070 28 47 c28 48 88
104 142 131 17 8 471 154 1010 323 871 274 987 309 1047 309 57 0 70 -4 92
-24 14 -14 30 -41 36 -60 6 -23 10 -337 10 -834 l0 -797 -37 16 c-131 55 -341
75 -525 51 -515 -69 -928 -454 -928 -866 0 -297 218 -531 565 -607 108 -23
329 -24 448 0 415 81 742 353 844 701 17 56 18 171 21 1715 2 1118 -1 1677 -8
1723 -19 125 -80 216 -177 264 -49 23 -71 28 -153 30 -52 1 -104 -1 -115 -3z"/>
</g>
</svg>
