<?xml version="1.0" standalone="no"?>
<!DOCTYPE svg PUBLIC "-//W3C//DTD SVG 20010904//EN"
 "http://www.w3.org/TR/2001/REC-SVG-20010904/DTD/svg10.dtd">
<svg version="1.0" xmlns="http://www.w3.org/2000/svg"
 width="204.000000pt" height="204.000000pt" viewBox="0 0 204.000000 204.000000"
 preserveAspectRatio="xMidYMid meet">
<metadata>
Created by potrace 1.14, written by Peter Selinger 2001-2017
</metadata>
<g transform="translate(0.000000,204.000000) scale(0.100000,-0.100000)"
fill="#000000" stroke="none">
<path d="M1736 1887 c-17 -19 -43 -36 -56 -39 -14 -3 -101 -27 -195 -53 -93
-26 -192 -53 -220 -60 -27 -7 -126 -34 -220 -60 -93 -26 -192 -53 -220 -60
-27 -7 -117 -31 -200 -54 -148 -41 -150 -41 -192 -25 -84 32 -183 -3 -213 -75
-12 -31 -13 -31 -90 -31 -70 0 -80 -2 -104 -26 l-26 -27 0 -601 c1 -635 0
-619 47 -644 31 -17 1915 -17 1946 0 47 25 46 9 47 644 l0 601 -26 27 -27 26
-735 0 c-450 0 -732 4 -727 9 9 9 81 29 585 166 107 29 289 79 404 110 188 51
213 56 247 46 44 -13 80 -3 103 31 24 34 19 66 -13 99 -40 39 -75 38 -115 -4z
m224 -1112 l0 -565 -940 0 -940 0 0 565 0 565 940 0 940 0 0 -565z"/>
<path d="M1317 1219 c-212 -30 -377 -222 -377 -440 0 -279 227 -479 508 -447
127 14 266 108 330 222 33 58 62 162 62 222 0 104 -54 230 -133 312 -101 105
-241 151 -390 131z m224 -117 c60 -29 109 -63 109 -76 0 -3 -120 -6 -266 -6
-292 0 -286 -2 -203 56 106 73 242 83 360 26z m183 -189 c7 -16 17 -43 21 -60
l7 -33 -361 0 -361 0 0 25 c0 14 7 41 14 60 l15 35 325 0 325 0 15 -27z m21
-215 c-4 -18 -14 -45 -21 -60 l-15 -28 -324 0 c-365 0 -334 -7 -354 79 l-9 41
365 0 365 0 -7 -32z m-119 -197 c-15 -16 -56 -42 -89 -58 -54 -24 -74 -28
-152 -28 -78 0 -98 4 -145 27 -30 15 -71 41 -90 57 l-35 30 269 1 270 0 -28
-29z"/>
<path d="M310 1075 c-72 -77 41 -185 115 -110 33 32 33 78 0 110 -33 34 -83
34 -115 0z"/>
<path d="M329 805 c-14 -8 -32 -28 -39 -44 -10 -26 -10 -35 7 -63 26 -45 74
-58 111 -31 54 40 51 116 -4 142 -32 14 -43 14 -75 -4z"/>
</g>
</svg>
