<?xml version="1.0" standalone="no"?>
<!DOCTYPE svg PUBLIC "-//W3C//DTD SVG 20010904//EN"
 "http://www.w3.org/TR/2001/REC-SVG-20010904/DTD/svg10.dtd">
<svg version="1.0" xmlns="http://www.w3.org/2000/svg"
 width="512.000000pt" height="512.000000pt" viewBox="0 0 512.000000 512.000000"
 preserveAspectRatio="xMidYMid meet">
<metadata>
Created by potrace 1.14, written by Peter Selinger 2001-2017
</metadata>
<g transform="translate(0.000000,512.000000) scale(0.100000,-0.100000)"
fill="#000000" stroke="none">
<path d="M4567 5100 c-117 -30 -216 -137 -217 -237 0 -17 -3 -34 -8 -37 -4 -2
-774 -217 -1711 -476 -1679 -465 -1705 -472 -1754 -461 -214 49 -406 -81 -440
-299 l-11 -70 -46 -15 c-111 -37 -246 -157 -308 -272 -18 -34 -41 -96 -52
-139 -19 -75 -20 -115 -20 -1224 0 -1109 1 -1149 20 -1224 11 -43 34 -105 52
-139 46 -86 155 -194 244 -240 139 -72 -24 -67 2244 -67 2268 0 2105 -5 2244
67 89 46 198 154 244 240 18 34 41 96 52 139 19 75 20 115 20 1224 0 1109 -1
1149 -20 1224 -49 191 -184 343 -370 416 l-65 25 -1760 5 -1760 5 -7 48 c-3
27 -11 61 -16 76 l-9 27 1634 491 1634 491 40 -43 c106 -115 293 -120 402 -11
170 170 70 455 -168 480 -27 3 -67 1 -88 -4z m-897 -2136 c447 -92 797 -451
875 -898 112 -645 -346 -1244 -999 -1305 -576 -55 -1100 349 -1201 927 -69
396 94 813 417 1062 259 200 591 278 908 214z m-2677 -14 c177 -66 254 -269
168 -439 -11 -21 -43 -59 -71 -84 -180 -162 -471 -59 -509 182 -37 234 191
423 412 341z m23 -995 c110 -49 178 -157 178 -282 0 -62 -4 -80 -34 -139 -59
-114 -148 -168 -280 -168 -190 0 -333 174 -298 364 13 73 38 118 91 167 56 52
79 64 147 79 69 15 130 8 196 -21z"/>
<path d="M3295 2706 c-115 -23 -229 -70 -325 -136 -10 -6 141 -10 475 -10
l490 0 -39 26 c-57 39 -171 89 -246 108 -90 23 -267 29 -355 12z"/>
<path d="M2723 2308 c-29 -48 -63 -119 -63 -133 0 -3 355 -5 790 -5 l789 0
-22 48 c-12 26 -35 68 -50 95 l-28 47 -692 0 -693 0 -31 -52z"/>
<path d="M2606 1954 c-9 -23 -7 -157 2 -172 7 -10 182 -12 843 -10 l834 3 5
45 c3 25 4 69 2 98 l-4 52 -838 0 c-755 0 -838 -2 -844 -16z"/>
<path d="M2665 1553 c3 -16 25 -61 47 -101 l42 -72 694 2 695 3 48 89 c26 50
46 94 43 98 -3 4 -359 8 -791 8 l-785 0 7 -27z"/>
<path d="M3022 1140 c264 -159 603 -156 863 8 l50 32 -490 0 -490 0 67 -40z"/>
</g>
</svg>
