<?xml version="1.0" standalone="no"?>
<!DOCTYPE svg PUBLIC "-//W3C//DTD SVG 20010904//EN"
 "http://www.w3.org/TR/2001/REC-SVG-20010904/DTD/svg10.dtd">
<svg version="1.0" xmlns="http://www.w3.org/2000/svg"
 width="256.000000pt" height="256.000000pt" viewBox="0 0 256.000000 256.000000"
 preserveAspectRatio="xMidYMid meet">
<metadata>
Created by potrace 1.14, written by Peter Selinger 2001-2017
</metadata>
<g transform="translate(0.000000,256.000000) scale(0.100000,-0.100000)"
fill="#000000" stroke="none">
<path d="M555 1980 c-32 -13 -75 -64 -85 -101 -6 -18 -10 -87 -10 -151 l0
-118 -225 0 -225 0 0 -520 0 -520 1270 0 1270 0 0 519 0 519 -219 7 -218 7 -7
136 c-7 148 -16 173 -70 210 l-32 22 -715 -1 c-393 0 -723 -4 -734 -9z m1395
-238 l0 -119 -497 -6 c-273 -4 -572 -7 -665 -7 l-168 0 0 125 0 125 665 0 665
0 0 -118z m-1368 -293 c119 -25 226 -108 274 -213 56 -122 54 -220 -6 -342
-37 -76 -101 -136 -186 -176 -62 -29 -70 -30 -167 -26 -85 3 -110 8 -152 30
-80 41 -141 102 -177 176 -31 62 -33 73 -33 172 0 92 3 112 26 160 38 80 100
144 172 180 94 46 163 57 249 39z m1630 -31 c83 -38 158 -113 195 -195 22 -49
27 -73 27 -153 1 -83 -2 -102 -26 -153 -75 -159 -253 -257 -414 -228 -129 24
-232 102 -287 219 -29 61 -32 76 -32 162 0 86 3 101 32 162 93 196 308 275
505 186z m-642 -158 l0 -190 -290 0 -290 0 0 190 0 190 290 0 290 0 0 -190z"/>
</g>
</svg>
