<?xml version="1.0" standalone="no"?>
<!DOCTYPE svg PUBLIC "-//W3C//DTD SVG 20010904//EN"
 "http://www.w3.org/TR/2001/REC-SVG-20010904/DTD/svg10.dtd">
<svg version="1.0" xmlns="http://www.w3.org/2000/svg"
 width="256.000000pt" height="256.000000pt" viewBox="0 0 256.000000 256.000000"
 preserveAspectRatio="xMidYMid meet">
<metadata>
Created by potrace 1.14, written by Peter Selinger 2001-2017
</metadata>
<g transform="translate(0.000000,256.000000) scale(0.100000,-0.100000)"
fill="#000000" stroke="none">
<path d="M300 2136 c-148 -41 -257 -157 -289 -306 -9 -40 -11 -223 -9 -672 l3
-616 30 -43 c40 -56 84 -81 159 -88 l61 -6 3 -47 c2 -34 10 -53 29 -72 25 -25
30 -26 148 -26 118 0 123 1 148 26 19 19 27 38 29 72 l3 47 665 0 665 0 3 -47
c2 -34 10 -53 29 -72 25 -25 30 -26 148 -26 118 0 123 1 148 26 19 19 27 38
29 72 l3 47 61 6 c75 7 119 32 159 88 l30 43 3 616 c2 449 0 632 -9 672 -32
151 -143 266 -294 306 -71 19 -1887 19 -1955 0z m1971 -117 c71 -33 125 -87
158 -158 l26 -56 3 -598 c2 -532 1 -601 -13 -632 -33 -69 36 -65 -1165 -65
-1199 0 -1132 -4 -1164 65 -23 48 -24 1164 -1 1241 31 105 102 179 208 215 49
17 107 18 972 16 l920 -2 56 -26z"/>
<path d="M685 1776 c-160 -39 -291 -143 -364 -288 -51 -100 -65 -168 -58 -293
8 -179 87 -325 228 -424 132 -93 317 -127 473 -86 288 75 467 369 405 667 -42
203 -224 385 -427 427 -68 14 -193 13 -257 -3z m83 -548 l-3 -453 -30 4 c-16
1 -50 11 -75 20 l-45 17 -3 411 -2 412 52 20 c29 11 65 20 81 20 l27 1 -2
-452z m215 429 l37 -16 0 -415 0 -414 -47 -16 c-27 -8 -59 -16 -73 -18 l-25
-3 -3 454 -2 454 37 -5 c21 -3 55 -13 76 -21z m-473 -429 l0 -332 -28 27 c-42
40 -89 125 -107 192 -27 106 -17 209 30 309 21 45 89 136 101 136 2 0 4 -149
4 -332z m722 195 c16 -35 35 -92 41 -128 21 -121 -22 -267 -104 -358 l-38 -42
0 335 0 335 36 -40 c19 -22 49 -68 65 -102z"/>
<path d="M1540 1635 l0 -155 380 0 380 0 0 155 0 155 -380 0 -380 0 0 -155z
m458 3 l3 -48 -180 0 -181 0 0 50 0 50 178 -2 177 -3 3 -47z"/>
<path d="M1851 1263 c-101 -36 -169 -148 -158 -263 12 -137 114 -229 252 -230
146 0 255 109 255 255 0 181 -174 300 -349 238z m175 -113 c34 -22 74 -90 74
-129 0 -34 -36 -97 -70 -121 -90 -64 -214 -8 -236 107 -8 41 26 114 63 138 59
39 111 40 169 5z"/>
</g>
</svg>
